<?xml version="1.0" encoding="UTF-8" standalone="no"?>
<svg width="100px" height="100px" viewBox="0 0 100 100" version="1.1" xmlns="http://www.w3.org/2000/svg" xmlns:xlink="http://www.w3.org/1999/xlink" xmlns:sketch="http://www.bohemiancoding.com/sketch/ns">
    <!-- Generator: Sketch 3.4.4 (17249) - http://www.bohemiancoding.com/sketch -->
    <title>ic_person_black_24px</title>
    <desc>Created with Sketch.</desc>
    <defs>
        <circle id="path-1" cx="50" cy="50" r="50"></circle>
    </defs>
    <g id="Web" stroke="none" stroke-width="1" fill="none" fill-rule="evenodd" sketch:type="MSPage">
        <g id="1.-Initial-View-(both)-O2-E4-Error" sketch:type="MSArtboardGroup" transform="translate(-602.000000, -352.000000)">
            <g id="Focus-600px" sketch:type="MSLayerGroup" transform="translate(451.000000, 287.000000)">
                <g id="Group">
                    <g id="ic_person_black_24px" transform="translate(151.000000, 65.000000)">
                        <mask id="mask-2" sketch:name="Mask" fill="white">
                            <use xlink:href="#path-1"></use>
                        </mask>
                        <use id="Mask" fill="#E9E9E9" sketch:type="MSShapeGroup" xlink:href="#path-1"></use>
                        <g mask="url(#mask-2)" id="Group">
                            <g transform="translate(-6.000000, 8.000000)">
                                <g>
                                    <path d="M56,56 C66.3133333,56 74.6666667,47.6466667 74.6666667,37.3333333 C74.6666667,27.02 66.3133333,18.6666667 56,18.6666667 C45.6866667,18.6666667 37.3333333,27.02 37.3333333,37.3333333 C37.3333333,47.6466667 45.6866667,56 56,56 L56,56 Z M56,65.3333333 C43.54,65.3333333 18.6666667,71.5866667 18.6666667,84 L18.6666667,93.3333333 L93.3333333,93.3333333 L93.3333333,84 C93.3333333,71.5866667 68.46,65.3333333 56,65.3333333 L56,65.3333333 Z" id="Shape" fill="#999999" sketch:type="MSShapeGroup"></path>
                                    <path d="M0,0 L112,0 L112,112 L0,112 L0,0 Z" id="Shape" sketch:type="MSShapeGroup"></path>
                                </g>
                            </g>
                        </g>
                    </g>
                </g>
            </g>
        </g>
    </g>
</svg>