<?xml version="1.0" encoding="utf-8"?>
<!-- Generator: Adobe Illustrator 19.0.1, SVG Export Plug-In . SVG Version: 6.00 Build 0)  -->
<!DOCTYPE svg PUBLIC "-//W3C//DTD SVG 1.0//EN" "http://www.w3.org/TR/2001/REC-SVG-20010904/DTD/svg10.dtd">
<svg version="1.0" id="Layer_1" xmlns="http://www.w3.org/2000/svg" xmlns:xlink="http://www.w3.org/1999/xlink" x="0px" y="0px"
	 viewBox="0 0 120 120" enable-background="new 0 0 120 120" xml:space="preserve">
<g>
	<circle fill="#51C3C4" cx="60" cy="60" r="55"/>
	<g>
		<g>
			<path id="XMLID_1_" fill="#DCE1E5" stroke="#205182" stroke-width="2" stroke-miterlimit="10" d="M93.8,86H26.2
				c-1.8,0-3.2-1.4-3.2-3.2V37.2c0-1.8,1.4-3.2,3.2-3.2h67.6c1.8,0,3.2,1.4,3.2,3.2v45.6C97,84.6,95.6,86,93.8,86z"/>
			<path id="XMLID_214_" fill="#3773B1" stroke="#205182" stroke-width="2" stroke-miterlimit="10" d="M97,42H23v-4.8
				c0-1.8,1.4-3.2,3.2-3.2h67.6c1.8,0,3.2,1.4,3.2,3.2V42z"/>
			<circle id="XMLID_253_" fill="#F0524F" cx="27" cy="38" r="1"/>
			<circle id="XMLID_293_" fill="#FEBD1B" cx="30" cy="38" r="1"/>
			<circle id="XMLID_310_" fill="#51C3C4" cx="33" cy="38" r="1"/>
			<rect id="XMLID_252_" x="23" y="41" opacity="0.2" fill="#205182" width="74" height="4"/>
		</g>
		<path fill="#FFFFFF" d="M82.9,80H37.1c-0.6,0-1.1-0.5-1.1-1.1V49.1c0-0.6,0.5-1.1,1.1-1.1h45.7c0.6,0,1.1,0.5,1.1,1.1v29.7
			C84,79.5,83.5,80,82.9,80z"/>
		<g>
			<path opacity="0.2" fill="#3773B1" d="M79.6,59H40.4c-0.2,0-0.4-0.2-0.4-0.4v-5.2c0-0.2,0.2-0.4,0.4-0.4h39.2
				c0.2,0,0.4,0.2,0.4,0.4v5.2C80,58.8,79.8,59,79.6,59z"/>
			<path opacity="0.2" fill="#3773B1" d="M79.6,67H40.4c-0.2,0-0.4-0.2-0.4-0.4v-5.2c0-0.2,0.2-0.4,0.4-0.4h39.2
				c0.2,0,0.4,0.2,0.4,0.4v5.2C80,66.8,79.8,67,79.6,67z"/>
			<path fill="#51C3C4" d="M71.6,75H48.4c-0.2,0-0.4-0.2-0.4-0.4v-5.2c0-0.2,0.2-0.4,0.4-0.4h23.2c0.2,0,0.4,0.2,0.4,0.4v5.2
				C72,74.8,71.8,75,71.6,75z"/>
		</g>
	</g>
	<g>
		<g>
			<path fill="#F0524F" d="M44.1,15.9c0,7.5,5.1,13.7,12.1,15.5l3.9,3.9l3.9-3.9c6.9-1.7,12.1-8,12.1-15.5C75.9,7.1,68.8,0,60,0
				S44.1,7.1,44.1,15.9z"/>
		</g>
		<g>
			<g>
				<path fill="#E99A23" d="M68.7,19.2H51.3c-1.2,0-2.1-1-2.1-2.1v0c0-1.2,1-2.1,2.1-2.1h17.4c1.2,0,2.1,1,2.1,2.1v0
					C70.8,18.3,69.9,19.2,68.7,19.2z"/>
				<path fill="#FEBD1B" d="M68.1,24H51.9c-0.4,0-0.8-0.4-0.8-0.8v-8.1c0-4.9,4-8.9,8.9-8.9h0c4.9,0,8.9,4,8.9,8.9v8.1
					C68.9,23.7,68.5,24,68.1,24z"/>
				<path fill="#E99A23" d="M67.4,26H52.6c-0.5,0-0.8-0.4-0.8-0.8V24h16.5v1.2C68.2,25.7,67.9,26,67.4,26z"/>
				<g>
					<circle fill="#FFFFFF" cx="55.9" cy="14.1" r="2.5"/>
					<circle fill="#2B5184" cx="55.9" cy="14.1" r="0.8"/>
					<circle fill="#FFFFFF" cx="64.1" cy="14.1" r="2.5"/>
					<circle fill="#2B5184" cx="64.1" cy="14.1" r="0.8"/>
					<path fill="#E99A23" d="M60.7,18.7h-1.4c-0.7,0-1-0.7-0.7-1.3l0.7-1c0.3-0.5,1-0.5,1.4,0l0.7,1C61.7,17.9,61.3,18.7,60.7,18.7z
						"/>
					<path fill="#2B5184" d="M60,22.3c1.2,0,2.2-0.8,2.4-2c0.1-0.3-0.1-0.5-0.4-0.5h-4c-0.3,0-0.5,0.2-0.4,0.5
						C57.8,21.5,58.8,22.3,60,22.3z"/>
				</g>
				<path fill="#E99A23" d="M60,11.2c1.1,0,2-0.9,2-2V6.5c-0.6-0.1-1.3-0.2-2-0.2s-1.3,0.1-2,0.2v2.8C58,10.3,58.9,11.2,60,11.2z"/>
			</g>
		</g>
	</g>
</g>
</svg>
