<?xml version="1.0" encoding="utf-8"?>
<!-- Generator: Adobe Illustrator 19.0.1, SVG Export Plug-In . SVG Version: 6.00 Build 0)  -->
<!DOCTYPE svg PUBLIC "-//W3C//DTD SVG 1.1//EN" "http://www.w3.org/Graphics/SVG/1.1/DTD/svg11.dtd">
<svg version="1.1" id="Layer_1" xmlns="http://www.w3.org/2000/svg" xmlns:xlink="http://www.w3.org/1999/xlink" x="0px" y="0px"
	 viewBox="-187 189 200 200" enable-background="new -187 189 200 200" xml:space="preserve">
<g id="XMLID_2_" opacity="0.1">
	<g>
		<defs>
			<rect id="SVGID_1_" x="-187" y="189" width="200" height="200"/>
		</defs>
		<clipPath id="SVGID_2_">
			<use xlink:href="#SVGID_1_"  overflow="visible"/>
		</clipPath>
		
			<line id="XMLID_225_" clip-path="url(#SVGID_2_)" fill="none" stroke="#59AFE1" stroke-width="2" stroke-linejoin="round" stroke-miterlimit="10" x1="-48.5" y1="342.7" x2="0.6" y2="342.7"/>
		
			<path id="XMLID_223_" clip-path="url(#SVGID_2_)" fill="none" stroke="#59AFE1" stroke-width="2" stroke-linejoin="round" stroke-miterlimit="10" d="
			M-149.6,270.2h-20.5c-1.6,0-2.9-1.3-2.9-2.9v-19.1c0-1.6,1.3-2.9,2.9-2.9h20.6c1.6,0,2.9,1.3,2.9,2.9v19.1
			C-146.6,268.9-147.9,270.2-149.6,270.2z"/>
		<circle id="XMLID_222_" clip-path="url(#SVGID_2_)" fill="#59AFE1" cx="-159.8" cy="255.5" r="2.9"/>
		<path id="XMLID_221_" clip-path="url(#SVGID_2_)" fill="#59AFE1" d="M-158.8,262.9h-2.1c-1,0-1.7-0.9-1.4-1.8l1-4.1h2.9l1,4.1
			C-157.1,262-157.8,262.9-158.8,262.9z"/>
		
			<path id="XMLID_220_" clip-path="url(#SVGID_2_)" fill="none" stroke="#59AFE1" stroke-width="2" stroke-linejoin="round" stroke-miterlimit="10" d="
			M-152.5,245.2h-14.7v-5.9c0-2.4,2-4.4,4.4-4.4h5.9c2.4,0,4.4,2,4.4,4.4V245.2z"/>
		
			<path id="XMLID_218_" clip-path="url(#SVGID_2_)" fill="#FFFFFF" stroke="#59AFE1" stroke-width="2" stroke-linejoin="round" stroke-miterlimit="10" d="
			M-92.1,306.7h-25c-1.8,0-3.3-1.5-3.3-3.3v-20c0-1.8,1.5-3.3,3.3-3.3h25c1.8,0,3.3,1.5,3.3,3.3v20
			C-88.7,305.2-90.2,306.7-92.1,306.7z"/>
		
			<path id="XMLID_217_" clip-path="url(#SVGID_2_)" fill="#FFFFFF" stroke="#59AFE1" stroke-width="2" stroke-linejoin="round" stroke-miterlimit="10" d="
			M-99,299.8h-25c-1.8,0-3.3-1.5-3.3-3.3v-20c0-1.8,1.5-3.3,3.3-3.3h25c1.8,0,3.3,1.5,3.3,3.3v20C-95.6,298.3-97.1,299.8-99,299.8z"
			/>
		
			<line id="XMLID_216_" clip-path="url(#SVGID_2_)" fill="none" stroke="#59AFE1" stroke-width="2" stroke-linejoin="round" stroke-miterlimit="10" x1="-127.3" y1="278.5" x2="-95.6" y2="278.5"/>
		
			<line id="XMLID_215_" clip-path="url(#SVGID_2_)" fill="none" stroke="#59AFE1" stroke-width="2" stroke-linejoin="round" stroke-miterlimit="10" x1="-122.3" y1="284.4" x2="-100.5" y2="284.4"/>
		
			<line id="XMLID_214_" clip-path="url(#SVGID_2_)" fill="none" stroke="#59AFE1" stroke-width="2" stroke-linejoin="round" stroke-miterlimit="10" x1="-122.3" y1="288.5" x2="-100.5" y2="288.5"/>
		
			<line id="XMLID_213_" clip-path="url(#SVGID_2_)" fill="none" stroke="#59AFE1" stroke-width="2" stroke-linejoin="round" stroke-miterlimit="10" x1="-122.3" y1="292.8" x2="-100.5" y2="292.8"/>
		
			<path id="XMLID_211_" clip-path="url(#SVGID_2_)" fill="#FFFFFF" stroke="#59AFE1" stroke-width="2" stroke-linejoin="round" stroke-miterlimit="10" d="
			M-96.2,352.9h-20.9c-0.9,0-1.6-0.7-1.6-1.6v-25.8c0-0.9,0.7-1.6,1.6-1.6h15.4c0.4,0,0.8,0.2,1.1,0.5l5.5,5.5
			c0.3,0.3,0.5,0.7,0.5,1.1v20.3C-94.6,352.2-95.3,352.9-96.2,352.9z"/>
		
			<path id="XMLID_210_" clip-path="url(#SVGID_2_)" fill="#FFFFFF" stroke="#59AFE1" stroke-width="2" stroke-linejoin="round" stroke-miterlimit="10" d="
			M-90,345.5h-20.9c-0.9,0-1.6-0.7-1.6-1.6v-25.8c0-0.9,0.7-1.6,1.6-1.6h15.4c0.4,0,0.8,0.2,1.1,0.5l5.5,5.5
			c0.3,0.3,0.5,0.7,0.5,1.1v20.3C-88.4,344.7-89.1,345.5-90,345.5z"/>
		<g id="XMLID_203_" clip-path="url(#SVGID_2_)">
			<polygon fill="#59AFE1" points="-94.3,322.9 -94.3,318.3 -89.7,322.9 			"/>
			<g>
				<path fill="#59AFE1" d="M-93.3,320.7l1.2,1.2h-1.2V320.7 M-94.7,316.8c-0.3,0-0.6,0.2-0.6,0.6v5.9c0,0.3,0.3,0.6,0.6,0.6h5.9
					c0.6,0,0.8-0.7,0.4-1.1l-5.9-5.9C-94.4,316.8-94.5,316.8-94.7,316.8L-94.7,316.8z"/>
			</g>
		</g>
		
			<circle id="XMLID_201_" clip-path="url(#SVGID_2_)" fill="#FFFFFF" stroke="#59AFE1" stroke-width="2" stroke-linejoin="round" stroke-miterlimit="10" cx="-187" cy="286.9" r="13.2"/>
		<g id="XMLID_196_" clip-path="url(#SVGID_2_)">
			<path id="XMLID_198_" fill="#59AFE1" d="M-189.4,282.2c0,1.2-1,2.1-2.1,2.1s-2.1-1-2.1-2.1c0-1.2,1-2.1,2.1-2.1
				S-189.4,281.1-189.4,282.2z M-182.4,280.1c-1.2,0-2.1,1-2.1,2.1c0,1.2,1,2.1,2.1,2.1c1.1,0,2.1-1,2.1-2.1
				C-180.3,281.1-181.3,280.1-182.4,280.1z"/>
			<path id="XMLID_197_" fill="#59AFE1" d="M-187.3,293.8c2.9,0,5.3-2.1,5.8-4.8c0.1-0.6-0.4-1.2-1-1.2h-9.7c-0.6,0-1.1,0.6-1,1.2
				C-192.6,291.7-190.2,293.8-187.3,293.8z"/>
		</g>
		
			<circle id="XMLID_194_" clip-path="url(#SVGID_2_)" fill="#FFFFFF" stroke="#59AFE1" stroke-width="2" stroke-linejoin="round" stroke-miterlimit="10" cx="13" cy="286.9" r="13.2"/>
		<g id="XMLID_189_" clip-path="url(#SVGID_2_)">
			<path id="XMLID_191_" fill="#59AFE1" d="M10.6,282.2c0,1.2-1,2.1-2.1,2.1s-2.1-1-2.1-2.1c0-1.2,1-2.1,2.1-2.1
				S10.6,281.1,10.6,282.2z M17.6,280.1c-1.2,0-2.1,1-2.1,2.1c0,1.2,1,2.1,2.1,2.1s2.1-1,2.1-2.1C19.7,281.1,18.7,280.1,17.6,280.1z
				"/>
			<path id="XMLID_190_" fill="#59AFE1" d="M12.7,293.8c2.9,0,5.3-2.1,5.8-4.8c0.1-0.6-0.4-1.2-1-1.2H7.8c-0.6,0-1.1,0.6-1,1.2
				C7.4,291.7,9.8,293.8,12.7,293.8z"/>
		</g>
		
			<circle id="XMLID_187_" clip-path="url(#SVGID_2_)" fill="#FFFFFF" stroke="#59AFE1" stroke-width="2" stroke-linejoin="round" stroke-miterlimit="10" cx="-34.7" cy="229.2" r="10.7"/>
		<g id="XMLID_182_" clip-path="url(#SVGID_2_)">
			<path id="XMLID_184_" fill="#59AFE1" d="M-36.6,225.4c0,1-0.8,1.7-1.7,1.7c-1,0-1.7-0.8-1.7-1.7c0-1,0.8-1.7,1.7-1.7
				C-37.4,223.7-36.6,224.5-36.6,225.4z M-31,223.7c-1,0-1.7,0.8-1.7,1.7c0,1,0.8,1.7,1.7,1.7c1,0,1.7-0.8,1.7-1.7
				C-29.2,224.5-30,223.7-31,223.7z"/>
			<path id="XMLID_183_" fill="#59AFE1" d="M-34.9,234.8c2.3,0,4.3-1.7,4.7-3.9c0.1-0.5-0.3-0.9-0.8-0.9h-7.9
				c-0.5,0-0.9,0.4-0.8,0.9C-39.2,233.1-37.2,234.8-34.9,234.8z"/>
		</g>
		
			<path id="XMLID_180_" clip-path="url(#SVGID_2_)" fill="#FFFFFF" stroke="#59AFE1" stroke-width="2" stroke-linejoin="round" stroke-miterlimit="10" d="
			M20.6,218.1c0-1.2-0.8-2.2-2-2.2h-3.3h-1.7H8.7v-0.7c0,0,2.9-1.9,2.9-5c0-2.6-0.4-4.1-1.9-4.1c-1.4,0-2.3,0.8-2.5,1.9
			c-0.9,4.4-3.1,5-5,7.5l0,0c-0.9,1.2-2.4,1.9-3.9,1.9h-6.4v12.4h3.6c1.5,0,2.8,0.7,3.8,1.8l0,0c0.9,1.1,2.3,1.8,3.8,1.8H11h4.4h0.7
			c1.2,0,2.2-1,2.2-2.2s-1-2.2-2.2-2.2h0.7c1.2,0,2.2-1,2.2-2.2c0-1.2-1-2.2-2.2-2.2h0.7c1.2,0,2.2-1,2.2-2.2c0-1.2-1-2.2-2.2-2.2
			h1.2C19.8,220.3,20.6,219.3,20.6,218.1z"/>
		
			<rect id="XMLID_179_" x="-8.1" y="217.4" clip-path="url(#SVGID_2_)" fill="#FFFFFF" stroke="#59AFE1" stroke-width="2" stroke-linejoin="round" stroke-miterlimit="10" width="4.4" height="12.4"/>
		
			<path id="XMLID_177_" clip-path="url(#SVGID_2_)" fill="#FFFFFF" stroke="#59AFE1" stroke-width="2" stroke-linejoin="round" stroke-miterlimit="10" d="
			M-179.4,218.1c0-1.2-0.8-2.2-2-2.2h-3.3h-1.8h-4.9v-0.7c0,0,2.9-1.9,2.9-5c0-2.6-0.4-4.1-1.9-4.1s-2.3,0.8-2.5,1.9
			c-0.9,4.4-3.1,5-5,7.5l0,0c-0.9,1.2-2.4,1.9-3.9,1.9h-6.4v12.4h3.6c1.5,0,2.8,0.7,3.8,1.8l0,0c0.9,1.1,2.3,1.8,3.8,1.8h7.9h4.4
			h0.7c1.2,0,2.2-1,2.2-2.2s-1-2.2-2.2-2.2h0.7c1.2,0,2.2-1,2.2-2.2s-1-2.2-2.2-2.2h0.7c1.2,0,2.2-1,2.2-2.2c0-1.2-1-2.2-2.2-2.2
			h1.2C-180.2,220.3-179.4,219.3-179.4,218.1z"/>
		
			<rect id="XMLID_176_" x="-208.1" y="217.4" clip-path="url(#SVGID_2_)" fill="#FFFFFF" stroke="#59AFE1" stroke-width="2" stroke-linejoin="round" stroke-miterlimit="10" width="4.4" height="12.4"/>
		
			<path id="XMLID_174_" clip-path="url(#SVGID_2_)" fill="#FFFFFF" stroke="#59AFE1" stroke-width="2" stroke-linejoin="round" stroke-miterlimit="10" d="
			M-131.4,306.6c0-1.1-0.8-2-1.9-2h-3.1h-1.6h-4.6v-0.7c0,0,2.8-1.8,2.8-4.7c0-2.4-0.4-3.8-1.7-3.8s-2.1,0.8-2.3,1.7
			c-0.9,4.1-2.9,4.7-4.6,7l0,0c-0.9,1.1-2.2,1.8-3.6,1.8h-6v11.6h3.4c1.4,0,2.6,0.6,3.5,1.7l0,0c0.9,1.1,2.1,1.7,3.5,1.7h7.3h4.1
			h0.7c1.1,0,2-0.9,2-2s-0.9-2-2-2h0.7c1.1,0,2-0.9,2-2s-0.9-2-2-2h0.7c1.1,0,2-0.9,2-2s-0.9-2-2-2h1.1
			C-132.2,308.7-131.4,307.8-131.4,306.6z"/>
		
			<rect id="XMLID_173_" x="-158.2" y="306" clip-path="url(#SVGID_2_)" fill="#FFFFFF" stroke="#59AFE1" stroke-width="2" stroke-linejoin="round" stroke-miterlimit="10" width="4.1" height="11.6"/>
		<circle id="XMLID_171_" clip-path="url(#SVGID_2_)" fill="#59AFE1" cx="-58.1" cy="214.3" r="4.7"/>
		
			<circle id="XMLID_170_" clip-path="url(#SVGID_2_)" fill="#FFFFFF" stroke="#59AFE1" stroke-width="2" stroke-linejoin="round" stroke-miterlimit="10" cx="-58.1" cy="192.8" r="13.4"/>
		<g id="XMLID_168_" clip-path="url(#SVGID_2_)">
			<path id="XMLID_169_" fill="none" stroke="#59AFE1" stroke-width="2" stroke-linejoin="round" stroke-miterlimit="10" d="
				M-55.8,206.2v-12.1c0-1.1,0.9-1.9,1.9-1.9l0,0c1.1,0,1.9,0.9,1.9,1.9v0.3c0,1.1-0.9,1.9-1.9,1.9h-8.4c-1.1,0-1.9-0.9-1.9-1.9
				v-0.3c0-1.1,0.9-1.9,1.9-1.9l0,0c1.1,0,1.9,0.9,1.9,1.9v12.1"/>
		</g>
		
			<rect id="XMLID_167_" x="-64.2" y="206.2" clip-path="url(#SVGID_2_)" fill="#FFFFFF" stroke="#59AFE1" stroke-width="2" stroke-linejoin="round" stroke-miterlimit="10" width="12.3" height="8.1"/>
		
			<path id="XMLID_166_" clip-path="url(#SVGID_2_)" fill="none" stroke="#59AFE1" stroke-width="2" stroke-linejoin="round" stroke-miterlimit="10" d="
			M-9.1,223.6h-3.6c-2.2,0-4-1.8-4-4v-5.3c0-2.2-1.8-4-4-4H-52h-12.3"/>
		<circle id="XMLID_164_" clip-path="url(#SVGID_2_)" fill="#59AFE1" cx="-58.1" cy="414.3" r="4.7"/>
		
			<circle id="XMLID_163_" clip-path="url(#SVGID_2_)" fill="#FFFFFF" stroke="#59AFE1" stroke-width="2" stroke-linejoin="round" stroke-miterlimit="10" cx="-58.1" cy="392.8" r="13.4"/>
		<g id="XMLID_161_" clip-path="url(#SVGID_2_)">
			<path id="XMLID_162_" fill="none" stroke="#59AFE1" stroke-width="2" stroke-linejoin="round" stroke-miterlimit="10" d="
				M-55.8,406.2v-12.1c0-1.1,0.9-1.9,1.9-1.9l0,0c1.1,0,1.9,0.9,1.9,1.9v0.3c0,1.1-0.9,1.9-1.9,1.9h-8.4c-1.1,0-1.9-0.9-1.9-1.9
				v-0.3c0-1.1,0.9-1.9,1.9-1.9l0,0c1.1,0,1.9,0.9,1.9,1.9v12.1"/>
		</g>
		
			<rect id="XMLID_160_" x="-64.2" y="406.2" clip-path="url(#SVGID_2_)" fill="#FFFFFF" stroke="#59AFE1" stroke-width="2" stroke-linejoin="round" stroke-miterlimit="10" width="12.3" height="8.1"/>
		
			<line id="XMLID_159_" clip-path="url(#SVGID_2_)" fill="none" stroke="#59AFE1" stroke-width="2" stroke-linejoin="round" stroke-miterlimit="10" x1="-64.2" y1="410.3" x2="-52" y2="410.3"/>
		<g id="XMLID_155_" clip-path="url(#SVGID_2_)">
			<path id="XMLID_157_" fill="none" stroke="#59AFE1" stroke-width="2" stroke-linejoin="round" stroke-miterlimit="10" d="
				M-105.3,233.1h-17.3c-0.8,0-1.4-0.6-1.4-1.4v-11.6c0-0.8,0.6-1.4,1.4-1.4h17.3c0.8,0,1.4,0.6,1.4,1.4v11.5
				C-103.9,232.4-104.5,233.1-105.3,233.1z"/>
			
				<polyline id="XMLID_156_" fill="none" stroke="#59AFE1" stroke-width="2" stroke-linejoin="round" stroke-miterlimit="10" points="
				-123.2,219.9 -114,226.3 -104.8,219.9 			"/>
		</g>
		
			<path id="XMLID_153_" clip-path="url(#SVGID_2_)" fill="none" stroke="#59AFE1" stroke-width="2" stroke-linejoin="round" stroke-miterlimit="10" d="
			M-51.2,360.1h-13.7c-1.5,0-2.7-1.2-2.7-2.7V330c0-1.5,1.2-2.7,2.7-2.7h13.7c1.5,0,2.7,1.2,2.7,2.7v27.4
			C-48.5,358.9-49.7,360.1-51.2,360.1z"/>
		<rect id="XMLID_152_" x="-60.8" y="330" clip-path="url(#SVGID_2_)" fill="#59AFE1" width="5.5" height="1.4"/>
		<circle id="XMLID_151_" clip-path="url(#SVGID_2_)" fill="#59AFE1" cx="-58.1" cy="356" r="1.4"/>
		
			<line id="XMLID_150_" clip-path="url(#SVGID_2_)" fill="none" stroke="#59AFE1" stroke-width="2" stroke-linejoin="round" stroke-miterlimit="10" x1="-67.3" y1="334.3" x2="-48.5" y2="334.3"/>
		
			<path id="XMLID_148_" clip-path="url(#SVGID_2_)" fill="#FFFFFF" stroke="#59AFE1" stroke-width="2" stroke-linejoin="round" stroke-miterlimit="10" d="
			M-125.5,251.5c0-5.6,5.2-10.1,11.6-10.1s11.6,4.5,11.6,10.1c0,4.7-3.7,8.7-8.7,9.8v3.2l-4-2.9
			C-120.9,261.2-125.5,256.8-125.5,251.5z"/>
		
			<path id="XMLID_147_" clip-path="url(#SVGID_2_)" fill="#FFFFFF" stroke="#59AFE1" stroke-width="2" stroke-linejoin="round" stroke-miterlimit="10" d="
			M1.2,341.2c0-5.6,5.2-10.1,11.6-10.1c6.4,0,11.6,4.5,11.6,10.1c0,4.7-3.7,8.7-8.7,9.8v3.2l-3.9-2.9C5.8,350.9,1.2,346.5,1.2,341.2
			z"/>
		
			<path id="XMLID_146_" clip-path="url(#SVGID_2_)" fill="#FFFFFF" stroke="#59AFE1" stroke-width="2" stroke-linejoin="round" stroke-miterlimit="10" d="
			M-198.8,341.2c0-5.6,5.2-10.1,11.6-10.1c6.4,0,11.6,4.5,11.6,10.1c0,4.7-3.7,8.7-8.7,9.8v3.2l-3.9-2.9
			C-194.2,350.9-198.8,346.5-198.8,341.2z"/>
		<g id="XMLID_142_" clip-path="url(#SVGID_2_)">
			
				<circle id="XMLID_145_" fill="#FFFFFF" stroke="#59AFE1" stroke-width="2" stroke-linejoin="round" stroke-miterlimit="10" cx="-186.8" cy="389.1" r="6.5"/>
			
				<line id="XMLID_144_" fill="none" stroke="#59AFE1" stroke-width="2" stroke-linejoin="round" stroke-miterlimit="10" x1="-190" y1="389.1" x2="-183.5" y2="389.1"/>
			
				<line id="XMLID_143_" fill="none" stroke="#59AFE1" stroke-width="2" stroke-linejoin="round" stroke-miterlimit="10" x1="-186.8" y1="385.9" x2="-186.8" y2="392.3"/>
		</g>
		<g id="XMLID_138_" clip-path="url(#SVGID_2_)">
			
				<circle id="XMLID_141_" fill="#FFFFFF" stroke="#59AFE1" stroke-width="2" stroke-linejoin="round" stroke-miterlimit="10" cx="12.7" cy="389.1" r="6.5"/>
			
				<line id="XMLID_140_" fill="none" stroke="#59AFE1" stroke-width="2" stroke-linejoin="round" stroke-miterlimit="10" x1="9.5" y1="389.1" x2="16" y2="389.1"/>
			
				<line id="XMLID_139_" fill="none" stroke="#59AFE1" stroke-width="2" stroke-linejoin="round" stroke-miterlimit="10" x1="12.7" y1="385.9" x2="12.7" y2="392.3"/>
		</g>
		<g id="XMLID_133_" clip-path="url(#SVGID_2_)">
			
				<circle id="XMLID_136_" fill="#FFFFFF" stroke="#59AFE1" stroke-width="2" stroke-linejoin="round" stroke-miterlimit="10" cx="-186.8" cy="189.1" r="6.5"/>
			
				<line id="XMLID_135_" fill="none" stroke="#59AFE1" stroke-width="2" stroke-linejoin="round" stroke-miterlimit="10" x1="-190" y1="189.1" x2="-183.5" y2="189.1"/>
			
				<line id="XMLID_134_" fill="none" stroke="#59AFE1" stroke-width="2" stroke-linejoin="round" stroke-miterlimit="10" x1="-186.8" y1="185.9" x2="-186.8" y2="192.3"/>
		</g>
		<g id="XMLID_129_" clip-path="url(#SVGID_2_)">
			
				<circle id="XMLID_132_" fill="#FFFFFF" stroke="#59AFE1" stroke-width="2" stroke-linejoin="round" stroke-miterlimit="10" cx="12.7" cy="189.1" r="6.5"/>
			
				<line id="XMLID_131_" fill="none" stroke="#59AFE1" stroke-width="2" stroke-linejoin="round" stroke-miterlimit="10" x1="9.5" y1="189.1" x2="16" y2="189.1"/>
			
				<line id="XMLID_130_" fill="none" stroke="#59AFE1" stroke-width="2" stroke-linejoin="round" stroke-miterlimit="10" x1="12.7" y1="185.9" x2="12.7" y2="192.3"/>
		</g>
		
			<circle id="XMLID_127_" clip-path="url(#SVGID_2_)" fill="#FFFFFF" stroke="#59AFE1" stroke-width="2" stroke-linejoin="round" stroke-miterlimit="10" cx="-5.9" cy="261" r="6.5"/>
		
			<line id="XMLID_126_" clip-path="url(#SVGID_2_)" fill="none" stroke="#59AFE1" stroke-width="2" stroke-linejoin="round" stroke-miterlimit="10" x1="-9.1" y1="261" x2="-2.6" y2="261"/>
		
			<line id="XMLID_125_" clip-path="url(#SVGID_2_)" fill="none" stroke="#59AFE1" stroke-width="2" stroke-linejoin="round" stroke-miterlimit="10" x1="-5.9" y1="257.8" x2="-5.9" y2="264.3"/>
		
			<polygon id="XMLID_123_" clip-path="url(#SVGID_2_)" fill="none" stroke="#59AFE1" stroke-width="2" stroke-linejoin="round" stroke-miterlimit="10" points="
			-73.5,262.5 -73.5,268.1 -91.8,268.1 -94.9,265.3 -91.8,262.5 		"/>
		<circle id="XMLID_122_" clip-path="url(#SVGID_2_)" fill="#59AFE1" cx="-77.5" cy="265.3" r="1"/>
		
			<path id="XMLID_121_" clip-path="url(#SVGID_2_)" fill="none" stroke="#59AFE1" stroke-width="2" stroke-linejoin="round" stroke-miterlimit="10" d="
			M-68.5,265.3L-68.5,265.3c0,1.5-1.2,2.8-2.8,2.8h-2.2v-5.6h2.2C-69.8,262.5-68.5,263.7-68.5,265.3z"/>
		
			<polygon id="XMLID_119_" clip-path="url(#SVGID_2_)" fill="none" stroke="#59AFE1" stroke-width="2" stroke-linejoin="round" stroke-miterlimit="10" points="
			-75.1,360.1 -75.1,366.1 -95,366.1 -98.4,363.1 -95,360.1 		"/>
		<circle id="XMLID_118_" clip-path="url(#SVGID_2_)" fill="#59AFE1" cx="-79.4" cy="363.1" r="1.1"/>
		
			<path id="XMLID_117_" clip-path="url(#SVGID_2_)" fill="none" stroke="#59AFE1" stroke-width="2" stroke-linejoin="round" stroke-miterlimit="10" d="
			M-69.7,363.1L-69.7,363.1c0,1.7-1.4,3-3,3h-2.4v-6h2.4C-71.1,360.1-69.7,361.4-69.7,363.1z"/>
		
			<path id="XMLID_115_" clip-path="url(#SVGID_2_)" fill="#FFFFFF" stroke="#59AFE1" stroke-width="2" stroke-linejoin="round" stroke-miterlimit="10" d="
			M-2.3,364.1c0-2.9-2.3-5.3-5.1-5.5c-0.7-3.4-3.7-6-7.4-6c-4,0-7.3,3.1-7.5,7.1c-2.3,0.5-4,2.5-4,4.9c0,2.8,2.2,5,5,5h14l0,0
			C-4.5,369.3-2.3,367-2.3,364.1z"/>
		
			<path id="XMLID_114_" clip-path="url(#SVGID_2_)" fill="#FFFFFF" stroke="#59AFE1" stroke-width="2" stroke-linejoin="round" stroke-miterlimit="10" d="
			M-149.2,377.4c0-1.5-1.2-2.7-2.7-2.8c-0.4-1.8-1.9-3.1-3.8-3.1c-2.1,0-3.8,1.6-3.9,3.7c-1.2,0.2-2.1,1.3-2.1,2.5
			c0,1.4,1.2,2.6,2.6,2.6h7.2l0,0C-150.3,380.1-149.2,378.9-149.2,377.4z"/>
		
			<circle id="XMLID_113_" clip-path="url(#SVGID_2_)" fill="#FFFFFF" stroke="#59AFE1" stroke-width="2" stroke-linejoin="round" stroke-miterlimit="10" cx="-41.8" cy="273.7" r="18.5"/>
		
			<path id="XMLID_112_" clip-path="url(#SVGID_2_)" fill="none" stroke="#59AFE1" stroke-width="2" stroke-linejoin="round" stroke-miterlimit="10" d="
			M-41.8,286.8c-7.2,0-13.1-5.9-13.1-13.1c0-7.2,5.9-13.1,13.1-13.1c7.2,0,13.1,5.9,13.1,13.1c0,5.1-2.9,9.4-7.1,11.6"/>
		<path id="XMLID_111_" clip-path="url(#SVGID_2_)" fill="#59AFE1" d="M-40.3,274.6l-0.7-10.1h-1.5l-0.8,10.8c0,0,0.1,0.8,0.5,1.1
			c0.3,0.3,6.1,5.1,6.1,5.1l1.1-1.1L-40.3,274.6z"/>
		<polygon id="XMLID_110_" clip-path="url(#SVGID_2_)" fill="#59AFE1" points="-41.8,284.5 -41.8,289.1 -38.7,286.8 		"/>
		
			<path id="XMLID_108_" clip-path="url(#SVGID_2_)" fill="#FFFFFF" stroke="#59AFE1" stroke-width="2" stroke-linejoin="round" stroke-miterlimit="10" d="
			M-16.1,320.5l5.9,5.9c0.5,0.5,0.5,1.4,0,1.9l-0.8,0.8c-0.5,0.5-1.4,0.5-1.9,0l-5.8-5.9"/>
		
			<circle id="XMLID_107_" clip-path="url(#SVGID_2_)" fill="#FFFFFF" stroke="#59AFE1" stroke-width="2" stroke-linejoin="round" stroke-miterlimit="10" cx="-27.1" cy="312.3" r="13.7"/>
		
			<circle id="XMLID_106_" clip-path="url(#SVGID_2_)" fill="#FFFFFF" stroke="#59AFE1" stroke-width="2" stroke-linejoin="round" stroke-miterlimit="10" cx="-27.1" cy="312.3" r="8.1"/>
		
			<path id="XMLID_103_" clip-path="url(#SVGID_2_)" fill="none" stroke="#59AFE1" stroke-width="2" stroke-linejoin="round" stroke-miterlimit="10" d="
			M-33,218.5"/>
		
			<line id="XMLID_101_" clip-path="url(#SVGID_2_)" fill="none" stroke="#59AFE1" stroke-width="2" stroke-linejoin="round" stroke-miterlimit="10" x1="-5.9" y1="254.5" x2="-5.9" y2="229.2"/>
		
			<path id="XMLID_100_" clip-path="url(#SVGID_2_)" fill="#FFFFFF" stroke="#59AFE1" stroke-width="2" stroke-linejoin="round" stroke-miterlimit="10" d="
			M-68.6,253.1h-22.8c-1.3,0-2.3-1-2.3-2.3V228c0-1.3,1-2.3,2.3-2.3h22.8c1.3,0,2.3,1,2.3,2.3v22.8
			C-66.3,252.1-67.3,253.1-68.6,253.1z"/>
		
			<circle id="XMLID_99_" clip-path="url(#SVGID_2_)" fill="#FFFFFF" stroke="#59AFE1" stroke-width="2" stroke-linejoin="round" stroke-miterlimit="10" cx="-87.4" cy="248" r="1.7"/>
		
			<circle id="XMLID_98_" clip-path="url(#SVGID_2_)" fill="#FFFFFF" stroke="#59AFE1" stroke-width="2" stroke-linejoin="round" stroke-miterlimit="10" cx="-72.6" cy="248" r="1.7"/>
		
			<circle id="XMLID_97_" clip-path="url(#SVGID_2_)" fill="#FFFFFF" stroke="#59AFE1" stroke-width="2" stroke-linejoin="round" stroke-miterlimit="10" cx="-80" cy="248" r="1.7"/>
		
			<line id="XMLID_96_" clip-path="url(#SVGID_2_)" fill="none" stroke="#59AFE1" stroke-width="2" stroke-linejoin="round" stroke-miterlimit="10" x1="-87.4" y1="238.2" x2="-87.4" y2="244"/>
		
			<line id="XMLID_95_" clip-path="url(#SVGID_2_)" fill="none" stroke="#59AFE1" stroke-width="2" stroke-linejoin="round" stroke-miterlimit="10" x1="-87.4" y1="230.3" x2="-87.4" y2="236"/>
		
			<line id="XMLID_94_" clip-path="url(#SVGID_2_)" fill="none" stroke="#59AFE1" stroke-width="2" stroke-linejoin="round" stroke-miterlimit="10" x1="-80" y1="234.8" x2="-80" y2="244"/>
		
			<line id="XMLID_93_" clip-path="url(#SVGID_2_)" fill="none" stroke="#59AFE1" stroke-width="2" stroke-linejoin="round" stroke-miterlimit="10" x1="-80" y1="230.3" x2="-80" y2="232.5"/>
		
			<line id="XMLID_92_" clip-path="url(#SVGID_2_)" fill="none" stroke="#59AFE1" stroke-width="2" stroke-linejoin="round" stroke-miterlimit="10" x1="-72.6" y1="240.5" x2="-72.6" y2="244"/>
		
			<line id="XMLID_91_" clip-path="url(#SVGID_2_)" fill="none" stroke="#59AFE1" stroke-width="2" stroke-linejoin="round" stroke-miterlimit="10" x1="-72.6" y1="230.3" x2="-72.6" y2="238.2"/>
		<path id="XMLID_90_" clip-path="url(#SVGID_2_)" fill="#59AFE1" d="M-78.9,234.8h-2.3c-0.6,0-1.1-0.5-1.1-1.1l0,0
			c0-0.6,0.5-1.1,1.1-1.1h2.3c0.6,0,1.1,0.5,1.1,1.1l0,0C-77.7,234.3-78.2,234.8-78.9,234.8z"/>
		<path id="XMLID_89_" clip-path="url(#SVGID_2_)" fill="#59AFE1" d="M-71.5,240.5h-2.3c-0.6,0-1.1-0.5-1.1-1.1l0,0
			c0-0.6,0.5-1.1,1.1-1.1h2.3c0.6,0,1.1,0.5,1.1,1.1l0,0C-70.3,240-70.8,240.5-71.5,240.5z"/>
		<path id="XMLID_88_" clip-path="url(#SVGID_2_)" fill="#59AFE1" d="M-86.3,238.2h-2.3c-0.6,0-1.1-0.5-1.1-1.1l0,0
			c0-0.6,0.5-1.1,1.1-1.1h2.3c0.6,0,1.1,0.5,1.1,1.1l0,0C-85.2,237.7-85.7,238.2-86.3,238.2z"/>
		
			<path id="XMLID_86_" clip-path="url(#SVGID_2_)" fill="none" stroke="#59AFE1" stroke-width="2" stroke-linejoin="round" stroke-miterlimit="10" d="
			M-66.3,237.1h13.2c2.2,0,4,1.8,4,4v1.1c0,2.2,1.8,4,4,4h22.9c2.2,0,4,1.8,4,4V288c0,1.7,1.3,3,3,3H0"/>
		<circle id="XMLID_85_" clip-path="url(#SVGID_2_)" fill="#59AFE1" cx="-57.3" cy="250.5" r="1.4"/>
		<circle id="XMLID_84_" clip-path="url(#SVGID_2_)" fill="#59AFE1" cx="-161.6" cy="356.1" r="1.4"/>
		<circle id="XMLID_83_" clip-path="url(#SVGID_2_)" fill="#59AFE1" cx="-80.8" cy="353.9" r="1.4"/>
		<circle id="XMLID_82_" clip-path="url(#SVGID_2_)" fill="#59AFE1" cx="-135.8" cy="239.8" r="1.8"/>
		<circle id="XMLID_81_" clip-path="url(#SVGID_2_)" fill="#59AFE1" cx="-16.3" cy="232.1" r="2.2"/>
		<circle id="XMLID_80_" clip-path="url(#SVGID_2_)" fill="#59AFE1" cx="5.3" cy="247.5" r="1.3"/>
		<circle id="XMLID_79_" clip-path="url(#SVGID_2_)" fill="#59AFE1" cx="-136" cy="204.3" r="1.1"/>
		<circle id="XMLID_78_" clip-path="url(#SVGID_2_)" fill="#59AFE1" cx="-123.2" cy="314.9" r="1.3"/>
		<circle id="XMLID_77_" clip-path="url(#SVGID_2_)" fill="#59AFE1" cx="0" cy="199" r="2.3"/>
		<circle id="XMLID_76_" clip-path="url(#SVGID_2_)" fill="#59AFE1" cx="-35.7" cy="357.4" r="1.3"/>
		<circle id="XMLID_75_" clip-path="url(#SVGID_2_)" fill="#59AFE1" cx="3.6" cy="322.2" r="1.3"/>
		<circle id="XMLID_74_" clip-path="url(#SVGID_2_)" fill="#59AFE1" cx="-95.5" cy="207.3" r="2.1"/>
		<circle id="XMLID_73_" clip-path="url(#SVGID_2_)" fill="#59AFE1" cx="-66.3" cy="289.1" r="2.2"/>
		
			<line id="XMLID_72_" clip-path="url(#SVGID_2_)" fill="none" stroke="#59AFE1" stroke-width="2" stroke-linejoin="round" stroke-miterlimit="10" x1="-80" y1="253.1" x2="-80" y2="262.5"/>
		
			<circle id="XMLID_71_" clip-path="url(#SVGID_2_)" fill="none" stroke="#59AFE1" stroke-width="2" stroke-linejoin="round" stroke-miterlimit="10" cx="-61.3" cy="308.5" r="3.6"/>
		
			<path id="XMLID_70_" clip-path="url(#SVGID_2_)" fill="none" stroke="#59AFE1" stroke-width="2" stroke-linejoin="round" stroke-miterlimit="10" d="
			M-57,301.1L-57,301.1c-0.2-0.8-1-1.4-1.9-1.4h-5c-0.9,0-1.6,0.6-1.9,1.4l0,0c-0.2,0.8-1,1.4-1.9,1.4H-71c-1.1,0-2,0.9-2,2v9.8
			c0,1.1,0.9,2,2,2h19.4c1.1,0,2-0.9,2-2v-9.8c0-1.1-0.9-2-2-2H-55C-55.9,302.5-56.7,302-57,301.1z"/>
		
			<line id="XMLID_69_" clip-path="url(#SVGID_2_)" fill="none" stroke="#59AFE1" stroke-width="2" stroke-linejoin="round" stroke-miterlimit="10" x1="-58.1" y1="379.4" x2="-58.1" y2="360.1"/>
		
			<path id="XMLID_68_" clip-path="url(#SVGID_2_)" fill="none" stroke="#59AFE1" stroke-width="2" stroke-linejoin="round" stroke-miterlimit="10" d="
			M-19.5,369.6"/>
		
			<circle id="XMLID_67_" clip-path="url(#SVGID_2_)" fill="none" stroke="#59AFE1" stroke-width="2" stroke-linejoin="round" stroke-miterlimit="10" cx="-34.7" cy="375.8" r="4"/>
		
			<path id="XMLID_66_" clip-path="url(#SVGID_2_)" fill="none" stroke="#59AFE1" stroke-width="2" stroke-linejoin="round" stroke-miterlimit="10" d="
			M-19.5,369.6v4.2c0,1.1-0.9,2-2,2H-30"/>
		
			<path clip-path="url(#SVGID_2_)" fill="none" stroke="#59AFE1" stroke-width="2" stroke-linejoin="round" stroke-miterlimit="10" d="
			M-125.5,251.5h-6.5c-1.7,0-3,1.3-3,3v30.3c0,1.7-1.3,3-3,3h-35.8"/>
		
			<line id="XMLID_64_" clip-path="url(#SVGID_2_)" fill="none" stroke="#59AFE1" stroke-width="2" stroke-linejoin="round" stroke-miterlimit="10" x1="-114" y1="232.5" x2="-114" y2="241.4"/>
		
			<path id="XMLID_63_" clip-path="url(#SVGID_2_)" fill="none" stroke="#59AFE1" stroke-width="2" stroke-linejoin="round" stroke-miterlimit="10" d="
			M-139.2,330.6"/>
		
			<line id="XMLID_62_" clip-path="url(#SVGID_2_)" fill="none" stroke="#59AFE1" stroke-width="2" stroke-linejoin="round" stroke-miterlimit="10" x1="-2.3" y1="364.1" x2="13" y2="364.1"/>
		
			<path id="XMLID_61_" clip-path="url(#SVGID_2_)" fill="none" stroke="#59AFE1" stroke-width="2" stroke-linejoin="round" stroke-miterlimit="10" d="
			M-188,364.1h28.6c2.2,0,4,1.8,4,4v3.4"/>
		
			<path id="XMLID_60_" clip-path="url(#SVGID_2_)" fill="none" stroke="#59AFE1" stroke-width="2" stroke-linejoin="round" stroke-miterlimit="10" d="
			M-175.7,340.4h1.9c2.2,0,4,1.8,4,4v44.7"/>
		
			<path id="XMLID_59_" clip-path="url(#SVGID_2_)" fill="#FFFFFF" stroke="#59AFE1" stroke-width="2" stroke-linejoin="round" stroke-miterlimit="10" d="
			M-146.1,224.9h-15.6c-0.7,0-1.2-0.5-1.2-1.2v-19.3c0-0.7,0.5-1.2,1.2-1.2h11.5c0.3,0,0.6,0.1,0.8,0.4l4.1,4.1
			c0.2,0.2,0.4,0.5,0.4,0.8v15.1C-144.9,224.3-145.4,224.9-146.1,224.9z"/>
		<g id="XMLID_55_" clip-path="url(#SVGID_2_)">
			<polygon fill="#59AFE1" points="-149.1,207.8 -149.1,205.2 -146.5,207.8 			"/>
			<path fill="#59AFE1" d="M-149.6,203.4c-0.2,0-0.5,0.2-0.5,0.5v4.4c0,0.3,0.2,0.5,0.5,0.5h4.4c0.4,0,0.6-0.5,0.3-0.8l-4.4-4.4
				C-149.4,203.5-149.5,203.4-149.6,203.4L-149.6,203.4z"/>
		</g>
		
			<path id="XMLID_53_" clip-path="url(#SVGID_2_)" fill="none" stroke="#59AFE1" stroke-width="2" stroke-linejoin="round" stroke-miterlimit="10" d="
			M-162.8,211.5"/>
		
			<path id="XMLID_52_" clip-path="url(#SVGID_2_)" fill="none" stroke="#59AFE1" stroke-width="2" stroke-linejoin="round" stroke-miterlimit="10" d="
			M-144.2,214.1h12c1.1,0,2,0.9,2,2v7.5c0,1.1,0.9,2,2,2h4.2"/>
		
			<polyline id="XMLID_51_" clip-path="url(#SVGID_2_)" fill="none" stroke="#59AFE1" stroke-width="2" stroke-linejoin="round" stroke-miterlimit="10" points="
			-169.8,182.6 -169.8,223.7 -180.3,223.7 		"/>
		
			<path id="XMLID_50_" clip-path="url(#SVGID_2_)" fill="none" stroke="#59AFE1" stroke-width="2" stroke-linejoin="round" stroke-miterlimit="10" d="
			M-105.6,258.5v4.8c0,1.1,0.9,2,2,2h8.7"/>
		
			<path id="XMLID_49_" clip-path="url(#SVGID_2_)" fill="none" stroke="#59AFE1" stroke-width="2" stroke-linejoin="round" stroke-miterlimit="10" d="
			M-28.1,326v8.6c0,1.1,0.9,2,2,2h9.8c1.1,0,2,0.9,2,2v14"/>
		
			<line id="XMLID_48_" clip-path="url(#SVGID_2_)" fill="none" stroke="#59AFE1" stroke-width="2" stroke-linejoin="round" stroke-miterlimit="10" x1="-84.1" y1="389" x2="-84.1" y2="366.1"/>
		
			<line id="XMLID_47_" clip-path="url(#SVGID_2_)" fill="none" stroke="#59AFE1" stroke-width="2" stroke-linejoin="round" stroke-miterlimit="10" x1="-34.7" y1="379.8" x2="-34.7" y2="389.1"/>
		
			<line id="XMLID_46_" clip-path="url(#SVGID_2_)" fill="none" stroke="#59AFE1" stroke-width="2" stroke-linejoin="round" stroke-miterlimit="10" x1="-34.7" y1="189" x2="-34.7" y2="218.7"/>
		
			<line id="XMLID_45_" clip-path="url(#SVGID_2_)" fill="none" stroke="#59AFE1" stroke-width="2" stroke-linejoin="round" stroke-miterlimit="10" x1="16.8" y1="261" x2="0.3" y2="261"/>
		
			<line id="XMLID_44_" clip-path="url(#SVGID_2_)" fill="none" stroke="#59AFE1" stroke-width="2" stroke-linejoin="round" stroke-miterlimit="10" x1="-173.1" y1="261" x2="-187" y2="261"/>
		
			<line id="XMLID_43_" clip-path="url(#SVGID_2_)" fill="none" stroke="#59AFE1" stroke-width="2" stroke-linejoin="round" stroke-miterlimit="10" x1="-155" y1="380.2" x2="-155" y2="389"/>
		
			<line id="XMLID_42_" clip-path="url(#SVGID_2_)" fill="none" stroke="#59AFE1" stroke-width="2" stroke-linejoin="round" stroke-miterlimit="10" x1="-155" y1="185.9" x2="-155" y2="203.2"/>
		
			<path id="XMLID_41_" clip-path="url(#SVGID_2_)" fill="none" stroke="#59AFE1" stroke-width="2" stroke-linejoin="round" stroke-miterlimit="10" d="
			M-103.9,227.2h3.1c1.1,0,2-0.9,2-2v-4.7c0-1.1,0.9-2,2-2h20.4c1.1,0,2-0.9,2-2v-4.3c0-1.1,0.9-2,2-2h8.1"/>
		
			<path id="XMLID_40_" clip-path="url(#SVGID_2_)" fill="none" stroke="#59AFE1" stroke-width="2" stroke-linejoin="round" stroke-miterlimit="10" d="
			M-88.4,332.6h6.3c1.1,0,2,0.9,2,2v8.6c0,1.1,0.9,2,2,2h10.4"/>
		
			<path id="XMLID_39_" clip-path="url(#SVGID_2_)" fill="none" stroke="#59AFE1" stroke-width="2" stroke-linejoin="round" stroke-miterlimit="10" d="
			M-88.2,298.8h4.4c1.1,0,2,0.9,2,2v7c0,1.1,0.9,2,2,2h6.2"/>
		
			<path id="XMLID_38_" clip-path="url(#SVGID_2_)" fill="none" stroke="#59AFE1" stroke-width="2" stroke-linejoin="round" stroke-miterlimit="10" d="
			M-88.7,288.5h12.4c1.1,0,2-0.9,2-2v-18.4"/>
		<circle id="XMLID_37_" clip-path="url(#SVGID_2_)" fill="#59AFE1" cx="-145.1" cy="353.7" r="3.9"/>
		
			<circle id="XMLID_36_" clip-path="url(#SVGID_2_)" fill="#FFFFFF" stroke="#59AFE1" stroke-width="2" stroke-linejoin="round" stroke-miterlimit="10" cx="-145.1" cy="336.1" r="11"/>
		<g id="XMLID_34_" clip-path="url(#SVGID_2_)">
			<path id="XMLID_35_" fill="none" stroke="#59AFE1" stroke-width="2" stroke-linejoin="round" stroke-miterlimit="10" d="
				M-143.2,347.1v-9.9c0-0.9,0.7-1.6,1.6-1.6l0,0c0.9,0,1.6,0.7,1.6,1.6v0.3c0,0.9-0.7,1.6-1.6,1.6h-6.9c-0.9,0-1.6-0.7-1.6-1.6
				v-0.3c0-0.9,0.7-1.6,1.6-1.6l0,0c0.9,0,1.6,0.7,1.6,1.6v9.9"/>
		</g>
		
			<rect id="XMLID_33_" x="-150.1" y="347.1" clip-path="url(#SVGID_2_)" fill="#FFFFFF" stroke="#59AFE1" stroke-width="2" stroke-linejoin="round" stroke-miterlimit="10" width="10.1" height="6.6"/>
		
			<line id="XMLID_32_" clip-path="url(#SVGID_2_)" fill="none" stroke="#59AFE1" stroke-width="2" stroke-linejoin="round" stroke-miterlimit="10" x1="-140" y1="350.4" x2="-150.1" y2="350.4"/>
		
			<line id="XMLID_30_" clip-path="url(#SVGID_2_)" fill="none" stroke="#59AFE1" stroke-width="2" stroke-linejoin="round" stroke-miterlimit="10" x1="-84.1" y1="224.9" x2="-84.1" y2="188.2"/>
		
			<line id="XMLID_29_" clip-path="url(#SVGID_2_)" fill="none" stroke="#59AFE1" stroke-width="2" stroke-linejoin="round" stroke-miterlimit="10" x1="14.5" y1="312.1" x2="-14.4" y2="312.1"/>
		
			<line id="XMLID_28_" clip-path="url(#SVGID_2_)" fill="none" stroke="#59AFE1" stroke-width="2" stroke-linejoin="round" stroke-miterlimit="10" x1="-158.2" y1="312.1" x2="-190" y2="312.1"/>
		
			<path id="XMLID_27_" clip-path="url(#SVGID_2_)" fill="none" stroke="#59AFE1" stroke-width="2" stroke-linejoin="round" stroke-miterlimit="10" d="
			M-98.4,363.1h-44.7c-1.1,0-2-0.9-2-2v-4.5"/>
		
			<path id="XMLID_26_" clip-path="url(#SVGID_2_)" fill="none" stroke="#59AFE1" stroke-width="2" stroke-linejoin="round" stroke-miterlimit="10" d="
			M-38.7,375.8h-11.1c-2.2,0-4-1.8-4-4v-11.6"/>
		
			<line id="XMLID_25_" clip-path="url(#SVGID_2_)" fill="none" stroke="#59AFE1" stroke-width="2" stroke-linejoin="round" stroke-miterlimit="10" x1="13" y1="300.2" x2="13" y2="331.1"/>
		
			<line id="XMLID_18_" clip-path="url(#SVGID_2_)" fill="none" stroke="#59AFE1" stroke-width="2" stroke-linejoin="round" stroke-miterlimit="10" x1="-186.8" y1="300.2" x2="-186.8" y2="331.1"/>
		
			<path id="XMLID_17_" clip-path="url(#SVGID_2_)" fill="#FFFFFF" stroke="#59AFE1" stroke-width="2" stroke-linejoin="round" stroke-miterlimit="10" d="
			M-98.6,386.7c0-8.9-8.2-16.1-18.4-16.1s-18.4,7.2-18.4,16.1c0,7.5,5.9,13.8,13.8,15.6v5.1l6.2-4.7
			C-105.9,402-98.6,395.1-98.6,386.7z"/>
		<g id="XMLID_14_" clip-path="url(#SVGID_2_)">
			
				<line id="XMLID_16_" fill="none" stroke="#59AFE1" stroke-width="2" stroke-linejoin="round" stroke-miterlimit="10" x1="-127.3" y1="385.9" x2="-105.6" y2="385.9"/>
			
				<line id="XMLID_15_" fill="none" stroke="#59AFE1" stroke-width="2" stroke-linejoin="round" stroke-miterlimit="10" x1="-127.3" y1="390.8" x2="-111.4" y2="390.8"/>
		</g>
		
			<path id="XMLID_9_" clip-path="url(#SVGID_2_)" fill="#FFFFFF" stroke="#59AFE1" stroke-width="2" stroke-linejoin="round" stroke-miterlimit="10" d="
			M-98.6,186.7c0-8.9-8.2-16.1-18.4-16.1s-18.4,7.2-18.4,16.1c0,7.5,5.9,13.8,13.8,15.6v5.1l6.2-4.7
			C-105.9,202-98.6,195.1-98.6,186.7z"/>
		<g id="XMLID_6_" clip-path="url(#SVGID_2_)">
			
				<line id="XMLID_8_" fill="none" stroke="#59AFE1" stroke-width="2" stroke-linejoin="round" stroke-miterlimit="10" x1="-127.3" y1="185.9" x2="-105.6" y2="185.9"/>
			
				<line id="XMLID_7_" fill="none" stroke="#59AFE1" stroke-width="2" stroke-linejoin="round" stroke-miterlimit="10" x1="-127.3" y1="190.8" x2="-111.4" y2="190.8"/>
		</g>
	</g>
</g>
</svg>
