<?xml version="1.0" encoding="utf-8"?>
<!-- Generator: Adobe Illustrator 19.0.1, SVG Export Plug-In . SVG Version: 6.00 Build 0)  -->
<!DOCTYPE svg PUBLIC "-//W3C//DTD SVG 1.0//EN" "http://www.w3.org/TR/2001/REC-SVG-20010904/DTD/svg10.dtd">
<svg version="1.0" id="Layer_1" xmlns="http://www.w3.org/2000/svg" xmlns:xlink="http://www.w3.org/1999/xlink" x="0px" y="0px"
	 viewBox="-67 89 120 120" enable-background="new -67 89 120 120" xml:space="preserve">
<g display="none">
	<circle display="inline" fill="#51C3C4" cx="-7" cy="149" r="55"/>
	<g display="inline">
		<g>
			<path id="XMLID_1_" fill="#DCE1E5" stroke="#205182" stroke-width="2" stroke-miterlimit="10" d="M27.3,175.7h-68.6
				c-1.8,0-3.2-1.4-3.2-3.2v-47c0-1.8,1.4-3.2,3.2-3.2h68.6c1.8,0,3.2,1.4,3.2,3.2v47C30.5,174.3,29.1,175.7,27.3,175.7z"/>
			<path id="XMLID_214_" fill="#3773B1" stroke="#205182" stroke-width="2" stroke-miterlimit="10" d="M30.5,130.2h-75v-4.8
				c0-1.8,1.4-3.2,3.2-3.2h68.6c1.8,0,3.2,1.4,3.2,3.2V130.2z"/>
			<g id="XMLID_311_">
				<circle id="XMLID_253_" fill="#F0524F" cx="-40.1" cy="126.3" r="0.6"/>
				<circle id="XMLID_293_" fill="#FEBD1B" cx="-37.9" cy="126.3" r="0.6"/>
				<circle id="XMLID_310_" fill="#51C3C4" cx="-35.8" cy="126.3" r="0.6"/>
			</g>
			<rect id="XMLID_252_" x="-44.5" y="128.7" opacity="0.2" fill="#205182" enable-background="new    " width="75" height="4.8"/>
		</g>
		<path fill="#FFFFFF" d="M16.4,169.3h-46.8c-0.6,0-1.1-0.5-1.1-1.1v-30.7c0-0.6,0.5-1.1,1.1-1.1h46.7c0.6,0,1.1,0.5,1.1,1.1v30.6
			C17.5,168.8,17,169.3,16.4,169.3z"/>
		<path opacity="0.2" fill="#3773B1" enable-background="new    " d="M13.2,148.2h-40.4c-0.2,0-0.4-0.2-0.4-0.4v-5.3
			c0-0.2,0.2-0.4,0.4-0.4h40.5c0.2,0,0.4,0.2,0.4,0.4v5.3C13.6,148.1,13.5,148.2,13.2,148.2z"/>
		<path opacity="0.2" fill="#3773B1" enable-background="new    " d="M13.2,156.6h-40.4c-0.2,0-0.4-0.2-0.4-0.4v-5.3
			c0-0.2,0.2-0.4,0.4-0.4h40.5c0.2,0,0.4,0.2,0.4,0.4v5.3C13.6,156.4,13.5,156.6,13.2,156.6z"/>
		<path fill="#51C3C4" d="M4,165.5h-22c-0.2,0-0.4-0.2-0.4-0.4v-5.3c0-0.2,0.2-0.4,0.4-0.4H4c0.2,0,0.4,0.2,0.4,0.4v5.3
			C4.4,165.4,4.2,165.5,4,165.5z"/>
	</g>
	<g display="inline">
		<g>
			<path fill="#F0524F" d="M-22.9,104.9c0,7.5,5.1,13.7,12.1,15.5l3.9,3.9l3.9-3.9c6.9-1.7,12.1-8,12.1-15.5C8.9,96.1,1.8,89-7,89
				S-22.9,96.1-22.9,104.9z"/>
		</g>
		<g>
			<g>
				<path fill="#E99A23" d="M1.7,108.2h-17.4c-1.2,0-2.1-1-2.1-2.1l0,0c0-1.2,1-2.1,2.1-2.1H1.7c1.2,0,2.1,1,2.1,2.1l0,0
					C3.8,107.3,2.9,108.2,1.7,108.2z"/>
				<path fill="#FEBD1B" d="M1.1,113h-16.2c-0.4,0-0.8-0.4-0.8-0.8v-8.1c0-4.9,4-8.9,8.9-8.9l0,0c4.9,0,8.9,4,8.9,8.9v8.1
					C1.9,112.7,1.5,113,1.1,113z"/>
				<path fill="#E99A23" d="M0.4,115h-14.8c-0.5,0-0.8-0.4-0.8-0.8V113H1.3v1.2C1.2,114.7,0.9,115,0.4,115z"/>
				<g>
					<circle fill="#FFFFFF" cx="-11.1" cy="103.1" r="2.5"/>
					<circle fill="#2B5184" cx="-11.1" cy="103.1" r="0.8"/>
					<circle fill="#FFFFFF" cx="-2.9" cy="103.1" r="2.5"/>
					<circle fill="#2B5184" cx="-2.9" cy="103.1" r="0.8"/>
					<path fill="#E99A23" d="M-6.3,107.7h-1.4c-0.7,0-1-0.7-0.7-1.3l0.7-1c0.3-0.5,1-0.5,1.4,0l0.7,1
						C-5.3,106.9-5.7,107.7-6.3,107.7z"/>
					<path fill="#2B5184" d="M-7,111.3c1.2,0,2.2-0.8,2.4-2c0.1-0.3-0.1-0.5-0.4-0.5h-4c-0.3,0-0.5,0.2-0.4,0.5
						C-9.2,110.5-8.2,111.3-7,111.3z"/>
				</g>
				<path fill="#E99A23" d="M-7,100.2c1.1,0,2-0.9,2-2v-2.7c-0.6-0.1-1.3-0.2-2-0.2s-1.3,0.1-2,0.2v2.8C-9,99.3-8.1,100.2-7,100.2z"
					/>
			</g>
		</g>
	</g>
</g>
<g>
	<circle fill="#FEBD1B" cx="-7" cy="149" r="55"/>
	<path id="XMLID_672_" fill="#205182" stroke="#205182" stroke-width="2" stroke-linejoin="round" stroke-miterlimit="10" d="
		M18.9,178h-51.6c-1.2,0-2.2-0.9-2.2-2v-6h56v6C21,177.1,20,178,18.9,178z"/>
	
		<rect id="XMLID_596_" x="-35" y="138" fill="#F5F6F6" stroke="#205182" stroke-width="2" stroke-linejoin="round" stroke-miterlimit="10" width="56" height="18"/>
	<path id="XMLID_612_" fill="#F5F6F6" stroke="#205182" stroke-width="2" stroke-linejoin="round" stroke-miterlimit="10" d="
		M18.7,174h-51.4c-1.3,0-2.2-1-2.2-2.2V156h56v15.8C20.9,173,19.9,174,18.7,174z"/>
	<path id="XMLID_356_" fill="#F5F6F6" stroke="#205182" stroke-width="2" stroke-linejoin="round" stroke-miterlimit="10" d="
		M20.9,138H-35v-15.8c0-1.3,1-2.2,2.2-2.2h51.5c1.3,0,2.2,1,2.2,2.2L20.9,138L20.9,138z"/>
	<rect id="XMLID_468_" x="-35" y="134" opacity="0.2" fill="#205182" enable-background="new    " width="56" height="4"/>
	<g id="XMLID_92_">
		<circle id="XMLID_499_" fill="#51C3C4" cx="13" cy="129" r="3"/>
		<g id="XMLID_752_">
			
				<line id="XMLID_538_" opacity="0.2" fill="none" stroke="#205182" stroke-width="2" stroke-linejoin="round" stroke-miterlimit="10" enable-background="new    " x1="-28" y1="126" x2="-28" y2="132"/>
			
				<line id="XMLID_750_" opacity="0.2" fill="none" stroke="#205182" stroke-width="2" stroke-linejoin="round" stroke-miterlimit="10" enable-background="new    " x1="-23" y1="126" x2="-23" y2="132"/>
			
				<line id="XMLID_751_" opacity="0.2" fill="none" stroke="#205182" stroke-width="2" stroke-linejoin="round" stroke-miterlimit="10" enable-background="new    " x1="-18" y1="126" x2="-18" y2="132"/>
		</g>
	</g>
	<rect id="XMLID_8_" x="-35" y="152" opacity="0.2" fill="#205182" enable-background="new    " width="56" height="4"/>
	<g id="XMLID_2_">
		<circle id="XMLID_7_" fill="#51C3C4" cx="13" cy="147" r="3"/>
		<g id="XMLID_3_">
			
				<line id="XMLID_6_" opacity="0.2" fill="none" stroke="#205182" stroke-width="2" stroke-linejoin="round" stroke-miterlimit="10" enable-background="new    " x1="-28" y1="144" x2="-28" y2="150"/>
			
				<line id="XMLID_5_" opacity="0.2" fill="none" stroke="#205182" stroke-width="2" stroke-linejoin="round" stroke-miterlimit="10" enable-background="new    " x1="-23" y1="144" x2="-23" y2="150"/>
			
				<line id="XMLID_4_" opacity="0.2" fill="none" stroke="#205182" stroke-width="2" stroke-linejoin="round" stroke-miterlimit="10" enable-background="new    " x1="-18" y1="144" x2="-18" y2="150"/>
		</g>
	</g>
	<rect id="XMLID_15_" x="-35" y="170" opacity="0.2" fill="#205182" enable-background="new    " width="56" height="4"/>
	<g id="XMLID_9_">
		<circle id="XMLID_14_" fill="#51C3C4" cx="13" cy="165" r="3"/>
		<g id="XMLID_10_">
			
				<line id="XMLID_13_" opacity="0.2" fill="none" stroke="#205182" stroke-width="2" stroke-linejoin="round" stroke-miterlimit="10" enable-background="new    " x1="-28" y1="162" x2="-28" y2="168"/>
			
				<line id="XMLID_12_" opacity="0.2" fill="none" stroke="#205182" stroke-width="2" stroke-linejoin="round" stroke-miterlimit="10" enable-background="new    " x1="-23" y1="162" x2="-23" y2="168"/>
			
				<line id="XMLID_11_" opacity="0.2" fill="none" stroke="#205182" stroke-width="2" stroke-linejoin="round" stroke-miterlimit="10" enable-background="new    " x1="-18" y1="162" x2="-18" y2="168"/>
		</g>
	</g>
	<g>
		<g>
			<path fill="#51C3C4" d="M37.1,151.5c-7.5,0-13.7-5.1-15.5-12.1l-3.9-3.9l3.9-3.9c1.7-6.9,8-12.1,15.5-12.1
				c8.8,0,15.9,7.1,15.9,15.9S45.9,151.5,37.1,151.5z"/>
		</g>
		<g>
			<path fill="#FFFFFF" d="M33.4,137.6h-5.2v-5c0-1.5,1.2-2.7,2.7-2.7h2.4L33.4,137.6L33.4,137.6z"/>
			<circle fill="#FFE1A4" cx="29.6" cy="137.3" r="1.8"/>
			<circle fill="#FFE1A4" cx="44.1" cy="137.3" r="1.8"/>
			<path fill="#F3C37D" d="M37,145.9L37,145.9c-4,0-7.2-3.2-7.2-7.2V135c0-1.5,1.2-2.7,2.7-2.7h11.6v6.4
				C44.1,142.7,40.9,145.9,37,145.9z"/>
			<circle fill="#2B5184" cx="34.1" cy="136.2" r="0.8"/>
			<circle fill="#2B5184" cx="39.5" cy="136.2" r="0.8"/>
			<g>
				<path fill="#2B5184" d="M37,144.3c1.6,0,3-1.3,3-3h-6C34,142.9,35.3,144.3,37,144.3z"/>
			</g>
			<path fill="#FFFFFF" d="M41,141.6h-8l0,0c0-1.4,1.1-2.5,2.5-2.5h2.9C39.8,139.1,41,140.2,41,141.6L41,141.6z"/>
			<circle fill="#F3C37D" cx="37" cy="139.1" r="1.2"/>
			<path fill="#FFFFFF" d="M44.1,132.3H30.9l0,0c0-3.1,2.5-5.6,5.6-5.6h9.3v3.8C45.9,131.5,45.1,132.3,44.1,132.3z"/>
		</g>
	</g>
	<g>
		<g>
			<path fill="#F0524F" d="M-51.1,168.3c7.5,0,13.7-5.1,15.5-12.1l3.9-3.9l-3.9-3.9c-1.7-6.9-8-12.1-15.5-12.1
				c-8.8,0.1-15.9,7.3-15.9,16.1C-67,161.2-59.9,168.3-51.1,168.3z"/>
		</g>
		<g>
			<path fill="#FEBD1B" d="M-47.9,146.5h-7.7c-0.2,0-0.3,0-0.5-0.1l-2.5-1.7c-0.5-0.4-1.3,0-1.3,0.7v8.7c0,3.4,2.8,6.2,6.2,6.2h4.1
				c3.4,0,6.2-2.8,6.2-6.2v-8.8c0-0.7-0.7-1-1.3-0.7l-2.8,1.8C-47.5,146.5-47.7,146.5-47.9,146.5z"/>
			<circle fill="#2B5184" cx="-54.3" cy="151" r="0.7"/>
			<circle fill="#2B5184" cx="-48.8" cy="151" r="0.7"/>
			<circle fill="#2B5184" cx="-51.6" cy="156.1" r="2.1"/>
			<path fill="#FFFFFF" d="M-51.6,152.7h-2.5c-1.2,0-2.3,1-2.3,2.3l0,0c0,1.3,0.5,2.5,2.3,2.5c1.8,0,2-2.1,2.5-2.1s0.8,2.1,2.5,2.1
				c1.7,0,2.3-1.2,2.3-2.5l0,0c0-1.2-1-2.3-2.3-2.3H-51.6z"/>
			<path fill="#F0524F" d="M-53,152.7l0.8,1.2c0.3,0.4,0.9,0.4,1.1,0l0.8-1.2H-53z"/>
			<path fill="#E99A23" d="M-51.6,148.9c1.3,0,2.4-1.1,2.4-2.4H-54C-54,147.8-52.9,148.9-51.6,148.9z"/>
		</g>
	</g>
</g>
</svg>
