<?xml version="1.0" encoding="UTF-8" standalone="no"?>
<svg width="94px" height="54px" viewBox="0 0 94 54" version="1.1" xmlns="http://www.w3.org/2000/svg" xmlns:xlink="http://www.w3.org/1999/xlink" xmlns:sketch="http://www.bohemiancoding.com/sketch/ns">
    <!-- Generator: Sketch 3.5.2 (25235) - http://www.bohemiancoding.com/sketch -->
    <title>atlassian_objects-37</title>
    <desc>Created with Sketch.</desc>
    <defs></defs>
    <g id="Page-1" stroke="none" stroke-width="1" fill="none" fill-rule="evenodd" sketch:type="MSPage">
        <g id="Artboard-1" sketch:type="MSArtboardGroup" transform="translate(-1108.000000, -281.000000)">
            <g id="atlassian_objects-37" sketch:type="MSLayerGroup" transform="translate(1108.000000, 281.000000)">
                <path d="M83.2879533,53.8375574 L17.393514,53.8260492 L17.393514,52.9408033 L17.6228037,52.9408033 L83.2435888,52.9523115 L83.2879533,52.9523115 L83.4460841,52.9359344 C85.5606449,52.7199344 87.5293738,51.8993115 89.1800841,50.6396066 C90.8312336,49.3799016 92.1683178,47.6811148 93.0314486,45.6972787 L93.0327664,45.6941803 C93.6270748,44.3154098 93.9385047,42.8751148 93.9916542,41.4534098 C93.996486,41.5866393 93.9991215,41.7198689 93.9995607,41.853541 L94,41.8553115 L94,41.8964754 C94,43.4607049 93.6885701,45.0572459 93.0327664,46.5794262 L93.0314486,46.5825246 C92.1683178,48.5663607 90.8312336,50.2651475 89.1800841,51.5248525 C87.5293738,52.7845574 85.5606449,53.6051803 83.4460841,53.8211803 L83.2879533,53.8375574 M17.393514,53.8260492 L17.3649626,53.8260492 L17.3509065,53.8251639 C15.1041308,53.7906393 12.8178224,53.3227869 10.6303458,52.363623 C7.30784112,50.9100492 4.64641121,48.5446721 2.82131776,45.6879836 C0.996224299,42.8321803 0.00131775701,39.484623 0,36.0507541 L0,36.0392459 C0,35.8931803 0.00175700935,35.7471148 0.00527102804,35.6006066 C0.0869719626,38.8813279 1.07309346,42.0677705 2.82131776,44.8027377 C4.64641121,47.6594262 7.30784112,50.0248033 10.6303458,51.478377 C12.8178224,52.437541 15.1036916,52.9053934 17.3509065,52.939918 L17.3649626,52.9408033 L17.393514,52.9408033 L17.393514,53.8260492" id="Fill-1" fill="#D0D9DE" sketch:type="MSShapeGroup"></path>
                <path id="Fill-2" fill="#D0D9DE" sketch:type="MSShapeGroup" d="M83.2435888,52.9523115 L17.6228037,52.9408033 L83.2435888,52.9523115"></path>
                <path d="M17.393514,52.0555574 L17.3860467,52.0551148 C15.2438131,52.0250164 13.066,51.5810656 10.9804299,50.6666066 C4.65958879,47.9002131 0.876747664,41.6826885 0.878504673,35.1544426 C0.878504673,32.9063607 1.32961682,30.6184426 2.27049533,28.4354262 C5.01582243,22.0651967 11.1833645,18.2674918 17.6618972,18.2705902 L17.8354019,18.2705902 C18.1248692,17.0462951 18.516243,15.829082 19.036757,14.6273607 C22.6952897,6.12457377 30.9220467,1.04370492 39.5612617,1.04768852 C42.529729,1.04768852 45.551785,1.64832787 48.4438224,2.91201639 C54.4945234,5.56377049 58.7912897,10.5986066 60.7305888,16.435918 C62.3839346,15.9401803 64.1172243,15.6808033 65.8711589,15.6808033 C68.2576168,15.6808033 70.6884393,16.1650328 73.0063738,17.1812951 C78.6178224,19.6307705 82.3646449,24.6067377 83.5097757,30.2081311 C84.5407009,30.3121475 85.5891963,30.5670984 86.6078224,31.0083934 L86.6078224,31.0110492 L86.619243,31.0141475 C90.6840841,32.7996885 93.1232523,36.8032131 93.1214953,41.0112295 C93.1214953,42.4572787 92.833785,43.9329836 92.2271776,45.3418525 C90.6208318,49.0333279 87.2500093,51.6576393 83.3573551,52.0555574 L83.2435888,52.0670656 L17.393514,52.0555574" id="Fill-3" fill="#F8F8F6" sketch:type="MSShapeGroup"></path>
                <path d="M17.393514,52.0555574 L17.4506168,51.172082 L17.4435888,51.1716393 L17.4207477,51.1698689 L17.3983458,51.1698689 C15.3676822,51.1410984 13.3067103,50.7210492 11.330514,49.8548361 C8.33349533,48.542459 5.94396262,46.4174262 4.29808411,43.8440164 C2.65308411,41.2701639 1.75657009,38.2497049 1.75700935,35.1593115 L1.75700935,35.150459 L0.920672897,35.157541 L1.75481308,35.218623 C1.75788785,35.1699344 1.75657009,35.150459 1.75700935,35.150459 L0.920672897,35.157541 L1.75481308,35.218623 L1.75700935,35.1867541 L1.75700935,35.1544426 C1.75700935,33.0254262 2.18396262,30.8583443 3.07608411,28.7877541 C4.37802804,25.7681803 6.4851215,23.3642951 9.03805607,21.7097705 C11.5901121,20.0556885 14.5862523,19.1553934 17.6531121,19.1558361 L17.6570654,19.1558361 L17.6557477,18.4936721 L17.6377383,19.1553934 L17.6570654,19.1558361 L17.6557477,18.4936721 L17.6377383,19.1553934 L17.6495981,19.1558361 L17.6618972,19.1558361 L17.8354019,19.1558361 L18.5289813,19.1558361 L18.6897477,18.4759672 C18.9682336,17.2977049 19.3437944,16.1313934 19.8419065,14.981459 L19.842785,14.9796885 C21.6011121,10.8938361 24.4518598,7.63613115 27.9030654,5.3942459 C31.354271,3.1532459 35.4050561,1.9324918 39.5515981,1.93293443 L39.5546729,1.93293443 L39.5559907,1.27209836 L39.5401776,1.9324918 L39.5546729,1.93293443 L39.5559907,1.27209836 L39.5401776,1.9324918 L39.5498411,1.93293443 L39.5612617,1.93293443 C42.4120093,1.93293443 45.3141495,2.50967213 48.0941776,3.72422951 L48.0932991,3.72378689 C53.9076822,6.27196721 58.0322617,11.1058525 59.8973271,16.7169836 L60.167028,17.5287541 L60.9814019,17.2844262 C62.5539252,16.8125902 64.2033178,16.5660492 65.8711589,16.5660492 C68.1394579,16.5660492 70.4503645,17.0259344 72.6558505,17.9930656 L72.6571682,17.9935082 C77.9971589,20.3248033 81.5581776,25.0551148 82.6492804,30.3865082 L82.7792991,31.0238852 L83.4219252,31.0889508 C84.370271,31.185 85.3304766,31.4187049 86.2608131,31.8214918 L86.6078224,31.0083934 L85.7293178,31.0083934 L85.7293178,31.7024262 L86.4057664,31.8728361 L86.619243,31.0141475 L86.2678411,31.8254754 C88.1372991,32.6469836 89.6276822,33.9739672 90.6555327,35.5815738 C91.6825047,37.1891803 92.2429907,39.076082 92.2429907,41.0063607 L92.9348131,41.0063607 L92.2429907,41.0019344 L92.2429907,41.0063607 L92.9348131,41.0063607 L92.2429907,41.0019344 C92.2429907,41.0068033 92.2421121,41.0408852 92.2469439,41.094 L93.1214953,41.0112295 L92.2429907,41.0112295 C92.2429907,42.3390984 91.979,43.6944098 91.4211495,44.989082 L91.4224673,44.9864262 C90.6796916,46.6940656 89.5284112,48.1533934 88.1192897,49.228082 C86.709729,50.3027705 85.0467196,50.9928197 83.2690654,51.1747377 L83.198785,51.1818197 L17.393514,51.1703115 L17.393514,52.0555574 L17.4506168,51.172082 L17.393514,52.0555574 L17.393514,52.9408033 L83.2879533,52.9523115 L83.4460841,52.9359344 C85.5606449,52.7199344 87.5293738,51.8993115 89.1800841,50.6396066 C90.8312336,49.3799016 92.1683178,47.6811148 93.0314486,45.6972787 L93.0327664,45.6941803 C93.6885701,44.172 94,42.575459 94,41.0112295 L94,40.9700656 L93.9960467,40.9289016 L93.1509252,41.0085738 L94,41.0014918 L93.9960467,40.9289016 L93.1509252,41.0085738 L94,41.0014918 L93.2036355,41.0081311 L94,41.013 L94,41.0014918 L93.2036355,41.0081311 L94,41.013 L94,41.0063607 C93.9995607,38.7308361 93.3406822,36.5141803 92.1327383,34.6232951 C90.9252336,32.7324098 89.1638318,31.1659672 86.9702056,30.202377 L86.903,30.1731639 L86.8208598,30.1523607 L86.6078224,31.0110492 L87.4863271,31.0110492 L87.4863271,30.425459 L86.9548318,30.1952951 C85.8474766,29.7154918 84.7106916,29.4397377 83.5976262,29.3273115 L83.5097757,30.2081311 L84.370271,30.0293115 C83.1711121,24.157918 79.238486,18.9371803 73.3555794,16.369082 L73.3568972,16.3695246 C70.926514,15.3036885 68.3753364,14.7955574 65.8711589,14.7955574 C64.0311308,14.7955574 62.2139439,15.0673279 60.4797757,15.5878525 L60.7305888,16.435918 L61.5634112,16.1552951 C59.5503178,10.090918 55.0813645,4.85513115 48.7939065,2.1002459 L48.793028,2.09980328 C45.7894206,0.78742623 42.6470093,0.162442623 39.5612617,0.162442623 L39.5612617,1.04768852 L39.5823458,0.162442623 L39.5515981,0.162442623 C35.0624393,0.162442623 30.6844112,1.48234426 26.9512056,3.90614754 C23.2184393,6.32906557 20.1296168,9.86119672 18.230729,14.2750328 L18.2316075,14.2732623 C17.6886916,15.5263279 17.2810654,16.7944426 16.9806168,18.0652131 L17.8354019,18.2705902 L17.8354019,17.3853443 L17.6618972,17.3853443 L17.6618972,18.2705902 L17.6856168,17.3857869 L17.6597009,17.3853443 L17.6531121,17.3853443 C14.2449533,17.3853443 10.9215701,18.3839016 8.08751402,20.2207869 C5.25345794,22.0563443 2.90697196,24.7350984 1.46446729,28.0826557 C0.474831776,30.378541 0,32.7872951 0,35.1544426 L0.878504673,35.1544426 L0.00219626168,35.0902623 L0,35.1570984 L0,35.1655082 L0.736626168,35.1593115 L0,35.1593115 L0,35.1655082 L0.736626168,35.1593115 L0,35.1593115 C0,38.5949508 0.994906542,41.9451639 2.82131776,44.8027377 C4.64641121,47.6594262 7.30784112,50.0248033 10.6303458,51.478377 C12.8252897,52.441082 15.1195047,52.9084918 17.3741869,52.939918 L17.3860467,52.0551148 L17.3289439,52.9381475 L17.3364112,52.9385902 L17.3649626,52.9408033 L17.393514,52.9408033 L17.393514,52.0555574" id="Fill-4" fill="#264970" sketch:type="MSShapeGroup"></path>
                <path d="M83.198785,51.1818197 L17.4220654,51.1703115 L17.4207477,51.1698689 L17.3983458,51.1698689 C15.3676822,51.1410984 13.3067103,50.7210492 11.330514,49.8548361 C8.33349533,48.542459 5.94396262,46.4174262 4.29808411,43.8440164 C3.07871963,41.9363115 2.27093458,39.7833934 1.93446729,37.5379672 C3.46438318,41.707918 6.61382243,45.2666066 10.9804299,47.1774098 C13.066,48.0918689 15.2438131,48.5362623 17.3860467,48.565918 L17.393514,48.5663607 L83.2435888,48.5783115 L83.3573551,48.5663607 C87.2306822,48.1706557 90.5870093,45.5711311 92.2025794,41.9084262 C92.1094579,42.9441639 91.8538131,43.9847705 91.4211495,44.989082 L91.4224673,44.9864262 C90.6796916,46.6940656 89.5284112,48.1533934 88.1192897,49.228082 C86.709729,50.3027705 85.0467196,50.9928197 83.2690654,51.1747377 L83.198785,51.1818197" id="Fill-5" fill="#C7D0D5" sketch:type="MSShapeGroup"></path>
                <path d="M83.2435888,52.0670656 L17.393514,52.0555574 L17.4506168,51.172082 L17.393514,52.0555574 L17.3860467,52.0551148 C15.2438131,52.0250164 13.066,51.5810656 10.9804299,50.6666066 C4.65958879,47.9002131 0.876747664,41.6826885 0.878504673,35.1544426 C0.878504673,34.5626557 0.91188785,33.9682131 0.975140187,33.3737705 C1.11965421,34.8016721 1.44382243,36.2012459 1.93446729,37.5379672 C2.27093458,39.7833934 3.07871963,41.9363115 4.29808411,43.8440164 C5.94396262,46.4174262 8.33349533,48.542459 11.330514,49.8548361 C13.3067103,50.7210492 15.3676822,51.1410984 17.3983458,51.1698689 L17.4207477,51.1698689 L17.4220654,51.1703115 L83.198785,51.1818197 L83.2690654,51.1747377 C85.0467196,50.9928197 86.709729,50.3027705 88.1192897,49.228082 C89.5284112,48.1533934 90.6796916,46.6940656 91.4224673,44.9864262 L91.4211495,44.989082 C91.8538131,43.9847705 92.1094579,42.9441639 92.2025794,41.9084262 C92.2109252,41.8898361 92.2188318,41.8712459 92.2271776,41.8526557 C92.59,41.0099016 92.8364206,40.1432459 92.9778598,39.2730492 C93.0701028,39.8453607 93.1219346,40.4256393 93.1214953,41.0112295 C93.1214953,42.4572787 92.833785,43.9329836 92.2271776,45.3418525 C90.6208318,49.0333279 87.2500093,51.6576393 83.3573551,52.0555574 L83.2435888,52.0670656" id="Fill-6" fill="#264970" sketch:type="MSShapeGroup"></path>
            </g>
        </g>
    </g>
</svg>