<svg xmlns="http://www.w3.org/2000/svg" xmlns:xlink="http://www.w3.org/1999/xlink" preserveAspectRatio="xMidYMid" width="270" height="270" viewBox="0 0 270 270">
  <defs>
    <style>

      .cls-3 {
        fill: #f5f5f5;
      }

      .cls-4 {
        fill: #ffffff;
      }

      .cls-5 {
        fill: #f15c75;
        opacity: 0.6;
      }

      .cls-6 {
        fill: #f79232;
        opacity: 0.6;
      }

      .cls-7 {
        fill: #1a8cff;
        opacity: 0.6;
      }
    </style>
  </defs>
  <g id="vennsvg">
    <circle id="circle-1" class="cls-3" cx="135" cy="135" r="135"/>
    <path d="M186.490,90.255 C186.442,90.666 186.379,91.073 186.320,91.481 C186.256,91.924 186.193,92.368 186.117,92.807 C186.037,93.266 185.945,93.720 185.852,94.174 C185.774,94.549 185.696,94.922 185.610,95.294 C185.495,95.789 185.371,96.281 185.240,96.771 C185.156,97.084 185.069,97.396 184.979,97.707 C184.825,98.237 184.665,98.765 184.493,99.288 C184.411,99.537 184.323,99.784 184.237,100.031 C184.039,100.601 183.836,101.168 183.616,101.729 C183.551,101.896 183.480,102.060 183.412,102.225 C183.158,102.853 182.898,103.478 182.617,104.094 C182.617,104.094 182.617,104.094 182.617,104.094 C212.945,105.635 237.005,127.823 237.005,154.977 C237.005,170.073 229.578,183.627 217.775,192.963 C217.150,193.458 216.650,194.475 217.000,195.559 C218.773,201.069 222.675,205.302 226.724,207.467 C227.001,207.614 228.384,208.405 228.384,210.293 C228.384,211.876 227.551,213.986 223.850,213.986 C211.655,213.986 201.686,210.255 193.782,205.292 C193.141,204.889 192.360,204.659 191.398,204.840 C187.481,205.581 183.417,205.971 179.249,205.971 C161.031,205.971 144.794,198.519 134.207,186.886 C132.236,189.063 130.077,191.100 127.736,192.963 C127.114,193.458 126.618,194.475 126.965,195.559 C128.728,201.069 132.608,205.302 136.635,207.467 C136.910,207.614 138.285,208.405 138.285,210.293 C138.285,211.876 137.456,213.986 133.777,213.986 C121.651,213.986 111.739,210.255 103.880,205.292 C103.243,204.889 102.466,204.659 101.510,204.840 C97.615,205.581 93.574,205.971 89.430,205.971 C57.712,205.971 32.000,183.145 32.000,154.977 C32.000,130.713 51.105,110.424 76.687,105.277 C75.552,102.958 74.605,100.552 73.864,98.069 C73.859,98.051 73.852,98.033 73.847,98.015 C73.616,97.236 73.407,96.450 73.217,95.658 C73.202,95.597 73.184,95.538 73.170,95.478 C72.995,94.735 72.843,93.984 72.705,93.230 C72.684,93.119 72.658,93.010 72.638,92.899 C72.514,92.193 72.415,91.481 72.324,90.767 C72.303,90.605 72.274,90.446 72.255,90.284 C72.175,89.595 72.121,88.900 72.072,88.203 C72.058,88.016 72.034,87.830 72.023,87.642 C71.972,86.759 71.945,85.871 71.945,84.977 C71.945,56.824 97.658,34.001 129.375,34.001 C161.090,34.001 186.802,56.824 186.802,84.977 C186.802,85.872 186.772,86.760 186.720,87.643 C186.701,87.973 186.665,88.298 186.639,88.626 C186.595,89.171 186.552,89.715 186.490,90.255 Z" id="path-1" class="cls-4" fill-rule="evenodd"/>
    <path d="M218.030,192.963 C217.404,193.458 216.904,194.475 217.253,195.559 C219.029,201.069 222.936,205.302 226.992,207.467 C227.269,207.614 228.654,208.405 228.654,210.293 C228.654,211.876 227.819,213.986 224.113,213.986 C211.901,213.986 201.919,210.255 194.003,205.292 C193.362,204.889 192.580,204.659 191.617,204.840 C187.694,205.581 183.625,205.971 179.451,205.971 C147.508,205.971 121.613,183.145 121.613,154.977 C121.613,126.824 147.508,104.001 179.451,104.001 C211.392,104.001 237.286,126.824 237.286,154.977 C237.286,170.073 229.849,183.627 218.030,192.963 Z" id="path-2" class="cls-5" fill-rule="evenodd"/>
    <path d="M127.867,192.963 C127.245,193.458 126.748,194.475 127.095,195.559 C128.861,201.069 132.746,205.302 136.778,207.467 C137.054,207.614 138.431,208.405 138.431,210.293 C138.431,211.876 137.601,213.986 133.916,213.986 C121.774,213.986 111.849,210.255 103.978,205.292 C103.341,204.889 102.563,204.659 101.605,204.840 C97.705,205.581 93.658,205.971 89.509,205.971 C57.748,205.971 32.000,183.145 32.000,154.977 C32.000,126.824 57.748,104.001 89.509,104.001 C121.267,104.001 147.014,126.824 147.014,154.977 C147.014,170.073 139.619,183.627 127.867,192.963 Z" id="path-3" class="cls-6" fill-rule="evenodd"/>
    <path d="M167.867,122.963 C167.245,123.458 166.748,124.475 167.095,125.559 C168.861,131.069 172.746,135.302 176.778,137.467 C177.054,137.614 178.431,138.405 178.431,140.293 C178.431,141.876 177.601,143.986 173.916,143.986 C161.774,143.986 151.849,140.255 143.978,135.292 C143.341,134.889 142.563,134.659 141.605,134.840 C137.705,135.581 133.658,135.971 129.509,135.971 C97.748,135.971 72.000,113.145 72.000,84.977 C72.000,56.824 97.748,34.001 129.509,34.001 C161.267,34.001 187.014,56.824 187.014,84.977 C187.014,100.073 179.619,113.627 167.867,122.963 Z" id="path-4" class="cls-7" fill-rule="evenodd"/>
  </g>
</svg>
